<?xml version="1.0" standalone="no"?>
<!DOCTYPE svg PUBLIC "-//W3C//DTD SVG 20010904//EN"
 "http://www.w3.org/TR/2001/REC-SVG-20010904/DTD/svg10.dtd">
<svg version="1.0" xmlns="http://www.w3.org/2000/svg"
 width="1008.000000pt" height="1008.000000pt" viewBox="0 0 1008.000000 1008.000000"
 preserveAspectRatio="xMidYMid meet">

<g transform="translate(0.000000,1008.000000) scale(0.100000,-0.100000)"
fill="#000000" stroke="none">
<path d="M4575 10074 c-1043 -51 -1698 -147 -2390 -351 -866 -255 -1497 -676
-1667 -1111 -16 -42 -36 -92 -44 -110 -12 -28 -14 -525 -14 -3458 l0 -3425 31
-92 c56 -169 143 -301 293 -445 850 -816 3192 -1252 5481 -1021 1516 153 2702
588 3156 1157 76 95 123 180 165 299 l34 97 0 3427 c0 2936 -2 3433 -14 3461
-8 18 -28 68 -44 110 -151 388 -662 762 -1395 1022 -641 227 -1395 364 -2357
426 -159 11 -1092 21 -1235 14z m1295 -388 c1144 -87 2049 -297 2694 -623 340
-173 557 -356 649 -550 30 -63 32 -75 32 -174 0 -104 0 -106 -44 -195 -84
-170 -305 -358 -601 -513 -678 -353 -1736 -587 -2950 -651 -251 -13 -969 -13
-1220 0 -901 48 -1689 182 -2340 399 -497 166 -841 351 -1061 570 -90 91 -112
119 -150 195 -44 89 -44 91 -44 195 0 99 2 111 32 174 236 498 1337 943 2763
1117 283 34 436 47 905 74 166 10 1144 -4 1335 -18z m-4951 -2120 c563 -455
1586 -782 2831 -905 829 -82 1751 -82 2580 0 1244 123 2268 451 2831 905 44
35 82 64 84 64 3 0 5 -349 5 -775 0 -760 0 -777 -21 -838 -104 -310 -549 -607
-1264 -843 -519 -171 -1105 -287 -1785 -354 -672 -66 -1554 -68 -2227 -5 -985
92 -1859 308 -2437 603 -374 190 -595 390 -665 599 -21 61 -21 78 -21 838 0
426 2 775 5 775 2 0 40 -29 84 -64z m140 -2304 c613 -420 1644 -715 2851 -816
423 -36 555 -41 1130 -41 575 0 707 5 1130 41 1306 110 2406 448 2988 917 45
37 85 67 87 67 3 0 5 -350 5 -777 l0 -778 -24 -66 c-179 -508 -1300 -977
-2771 -1158 -1029 -128 -2266 -105 -3243 60 -1289 217 -2206 647 -2361 1107
-20 60 -21 81 -21 842 l0 780 71 -60 c40 -33 110 -86 158 -118z m26 -2216
c821 -543 2230 -845 3945 -846 1452 0 2661 207 3534 606 224 103 468 251 614
373 l72 61 0 -787 c-1 -728 -2 -792 -18 -839 -147 -424 -966 -833 -2117 -1058
-406 -79 -794 -128 -1330 -168 -230 -17 -1260 -17 -1490 0 -536 40 -924 89
-1330 168 -1151 225 -1970 634 -2117 1058 -16 47 -17 111 -18 839 l0 787 72
-61 c40 -33 122 -93 183 -133z"/>
</g>
</svg>
