<?xml version="1.0" standalone="no"?>
<!DOCTYPE svg PUBLIC "-//W3C//DTD SVG 20010904//EN"
 "http://www.w3.org/TR/2001/REC-SVG-20010904/DTD/svg10.dtd">
<svg version="1.0" xmlns="http://www.w3.org/2000/svg"
 width="1008.000000pt" height="1008.000000pt" viewBox="0 0 1008.000000 1008.000000"
 preserveAspectRatio="xMidYMid meet">

<g transform="translate(0.000000,1008.000000) scale(0.100000,-0.100000)"
fill="#000000" stroke="none">
<path d="M4705 10069 c-871 -61 -1707 -342 -2427 -815 -1057 -696 -1812 -1755
-2123 -2979 -368 -1446 -70 -2991 810 -4196 830 -1138 2092 -1879 3475 -2043
2506 -298 4846 1302 5480 3745 112 433 155 783 155 1259 0 319 -8 439 -46 709
-131 940 -538 1838 -1165 2571 -126 148 -396 418 -544 544 -929 794 -2099
1223 -3308 1215 -108 -1 -246 -5 -307 -10z m443 -745 c209 -102 469 -541 656
-1107 111 -334 218 -783 279 -1169 l14 -88 -1057 0 -1057 0 3 23 c42 270 118
632 190 901 206 770 519 1348 791 1457 60 24 106 20 181 -17z m-1248 -129 c0
-3 -22 -50 -50 -105 -239 -476 -447 -1184 -565 -1928 -14 -86 -28 -167 -30
-179 l-5 -23 -1035 0 c-569 0 -1035 3 -1035 6 0 13 86 170 163 299 543 902
1397 1573 2412 1896 119 38 145 44 145 34z m2480 -52 c202 -67 345 -125 555
-228 748 -366 1374 -939 1802 -1650 77 -129 163 -286 163 -299 0 -3 -466 -6
-1035 -6 l-1035 0 -5 23 c-2 12 -16 93 -30 179 -118 744 -326 1452 -565 1928
-28 55 -50 102 -50 106 0 9 54 -5 200 -53z m-3214 -2955 c-9 -85 -25 -345 -36
-588 -22 -500 -5 -1314 36 -1702 l6 -58 -1140 0 -1140 0 -22 81 c-98 365 -144
718 -144 1119 0 401 46 754 144 1119 l22 81 1140 0 1140 0 -6 -52z m3031 -93
c51 -619 51 -1491 0 -2110 l-12 -140 -1145 0 -1145 0 -12 140 c-38 464 -50
1305 -25 1740 16 261 32 487 37 503 4 10 238 12 1147 10 l1143 -3 12 -140z
m3013 64 c98 -365 144 -718 144 -1119 0 -401 -46 -754 -144 -1119 l-22 -81
-1140 0 -1140 0 6 53 c24 218 46 751 46 1147 0 396 -22 929 -46 1148 l-6 52
1140 0 1140 0 22 -81z m-5955 -3061 c2 -13 16 -94 30 -180 119 -745 326 -1451
566 -1929 28 -56 48 -103 45 -106 -7 -7 -194 50 -336 103 -926 341 -1711 989
-2217 1829 -77 129 -163 286 -163 299 0 3 466 6 1035 6 l1035 0 5 -22z m2839
0 c-64 -412 -176 -892 -289 -1234 -224 -676 -535 -1139 -765 -1139 -246 0
-583 529 -805 1265 -101 336 -193 744 -249 1108 l-3 22 1057 0 1057 0 -3 -22z
m2806 16 c0 -13 -86 -170 -163 -299 -506 -840 -1291 -1488 -2217 -1829 -142
-53 -329 -110 -336 -103 -3 3 17 50 45 106 240 478 447 1184 566 1929 14 86
28 167 30 180 l5 22 1035 0 c569 0 1035 -3 1035 -6z"/>
</g>
</svg>
